# xmcd
#
# Track frame offsets: 
#        150
#        23455
#        51995
#        68292
#        101585
#        122465
#        139593
#        162727
#        184722
#        207043
#        227148
#        248290
#        266938
#        282866
#        308138
#
# Disc length: 4468 seconds
#
# Revision: 2
# Processed by: cddbd v1.5.2PL0 Copyright (c) Steve Scherf et al.
# Submitted via: ExactAudioCopy v0.99pb1
#
DISCID=c511720f
DTITLE=Buster Benton - Blues At The Top
DYEAR=1983
DGENRE=Blues
TTITLE0=My Lady
TTITLE1=Blues And Trouble
TTITLE2=It's Good In My Neighbourhood.
TTITLE3=Loan Me For A Dime
TTITLE4=I Wish I Knew
TTITLE5=From Missouri
TTITLE6=Dangerous Woman
TTITLE7=That's Your Thing
TTITLE8=Can't Wait To See My Baby  Face
TTITLE9=In The Ghetto
TTITLE10=Honey Bee
TTITLE11=The Hawk Is Coming
TTITLE12=I Must Have A Hole In My Head
TTITLE13=Cold Man
TTITLE14=Money Is The Name Of The Game
EXTD=
EXTT0=
EXTT1=
EXTT2=
EXTT3=
EXTT4=
EXTT5=
EXTT6=
EXTT7=
EXTT8=
EXTT9=
EXTT10=
EXTT11=
EXTT12=
EXTT13=
EXTT14=
PLAYORDER=
